<svg xmlns="http://www.w3.org/2000/svg" viewBox="0 0 15 12.83">
  <defs>
    <style>
      .cls-1 {
        fill: #fff;
      }
    </style>
  </defs>
  <path id="Path_2286" data-name="Path 2286" class="cls-1" d="M12.99,12.83H2.01a.529.529,0,0,1-.535-.535V3.678H.535A.529.529,0,0,1,0,3.143V.535A.529.529,0,0,1,.535,0H14.465A.529.529,0,0,1,15,.535V3.143a.529.529,0,0,1-.535.535H3.56V2.609H13.931V1.069H1.069v1.54H2.01a.529.529,0,0,1,.535.535v8.617h9.922V4.4h1.069V12.3A.545.545,0,0,1,12.99,12.83Z"/>
</svg>
