<svg xmlns="http://www.w3.org/2000/svg" viewBox="0 0 19.902 17"><defs><style>.a{fill:#461e7d;}</style></defs><path class="a" d="M18.352,1.452a5,5,0,0,0-7.048,0L9.852,2.9,8.4,1.452A4.984,4.984,0,0,0,1.352,8.5L2.8,9.952,9.852,17,16.9,9.952h0L18.352,8.5A5,5,0,0,0,18.352,1.452ZM16.69,6.838,15.238,8.29,9.873,13.655,4.487,8.29,3.035,6.838a2.641,2.641,0,0,1,1.851-4.5,2.547,2.547,0,0,1,1.851.778L8.19,4.566,9.852,6.228l1.662-1.662,1.452-1.452A2.633,2.633,0,1,1,16.69,6.838Z" transform="translate(0.1)"/></svg>