<svg xmlns="http://www.w3.org/2000/svg" viewBox="0 0 42 42.029">
  <defs>
    <style>
      .cls-1 {
        fill: none;
        stroke: #fff;
        stroke-linejoin: round;
        stroke-miterlimit: 10;
        stroke-width: 2px;
      }
    </style>
  </defs>
  <g id="Symbol_10_1" data-name="Symbol 10 – 1" transform="translate(-229 -2994.5)">
    <path id="Path_2754" data-name="Path 2754" class="cls-1" d="M28.9,25.333a4.261,4.261,0,0,1-1.331,2.9,4.344,4.344,0,1,1,.091-6.142l8.623-8.563L39.221,17.5l3.9-1L45,23.88l-3.9,1-.7,4.871,3.449,2.057-3.9,6.536L36.5,36.286l-3.964,2.965,1,3.9L26.15,45.03l-1-3.9-4.9-.726L18.192,43.85l-6.536-3.933,2.057-3.449-2.935-3.933-3.9,1L5,26.12l3.9-1,.726-4.871L6.15,18.192l3.933-6.536,3.449,2.057L17.5,10.779l-1-3.9L23.88,5l1,3.9,4.871.726L31.808,6.18l5.386,3.207" transform="translate(225 2990.5)"/>
  </g>
</svg>
