<svg xmlns="http://www.w3.org/2000/svg" viewBox="0 0 36 36"><defs><style>.a{fill:none;}.b,.d{fill:#fff;}.c,.d{stroke:none;}</style></defs><g transform="translate(-1414 -4341)"><g class="a" transform="translate(1414 4341)"><path class="c" d="M18,0A18,18,0,1,1,0,18,18,18,0,0,1,18,0Z"/><path class="d" d="M 18 2 C 13.72624969482422 2 9.70829963684082 3.664291381835938 6.686290740966797 6.686290740966797 C 3.664291381835938 9.70829963684082 2 13.72624969482422 2 18 C 2 22.27375030517578 3.664291381835938 26.29170036315918 6.686290740966797 29.3137092590332 C 9.70829963684082 32.33570861816406 13.72624969482422 34 18 34 C 22.27375030517578 34 26.29170036315918 32.33570861816406 29.3137092590332 29.3137092590332 C 32.33570861816406 26.29170036315918 34 22.27375030517578 34 18 C 34 13.72624969482422 32.33570861816406 9.70829963684082 29.3137092590332 6.686290740966797 C 26.29170036315918 3.664291381835938 22.27375030517578 2 18 2 M 18 0 C 27.94112014770508 0 36 8.058879852294922 36 18 C 36 27.94112014770508 27.94112014770508 36 18 36 C 8.058879852294922 36 0 27.94112014770508 0 18 C 0 8.058879852294922 8.058879852294922 0 18 0 Z"/></g><path class="b" d="M3.153,13.063H.338v-8.9H3.1v8.9ZM1.689,3.1h0A1.56,1.56,0,0,1,0,1.577,1.57,1.57,0,0,1,1.689,0,1.56,1.56,0,0,1,3.378,1.52,1.57,1.57,0,0,1,1.689,3.1Zm12.557,9.967H11.093V8.446c0-1.182-.507-2.027-1.577-2.027A1.63,1.63,0,0,0,8,7.489a2.752,2.752,0,0,0-.056.732v4.786h-3.1s.056-8.165,0-8.9h3.1V5.518A2.8,2.8,0,0,1,10.7,4.054c1.971,0,3.547,1.3,3.547,4.054Z" transform="translate(1425.217 4351)"/></g></svg>