<svg xmlns="http://www.w3.org/2000/svg" viewBox="0 0 15 12.6">
  <defs>
    <style>
      .cls-1 {
        fill: #fff;
      }
    </style>
  </defs>
  <path id="Path_2766" data-name="Path 2766" class="cls-1" d="M14.464,12.6H6.782a.531.531,0,0,1-.536-.536V7.1H7.318v4.425h6.611V1.071H7.318V5.443a.531.531,0,0,1-.536.536h-2.4a.531.531,0,0,1-.536-.536v-1.2L1.371,6.3,3.846,8.357v-1.2H4.918V9.5a.535.535,0,0,1-.879.407L.193,6.707A.565.565,0,0,1,0,6.3a.547.547,0,0,1,.193-.407l3.846-3.2a.548.548,0,0,1,.568-.075.528.528,0,0,1,.311.482V4.907H6.246V.536A.531.531,0,0,1,6.782,0h7.682A.531.531,0,0,1,15,.536V12.064A.537.537,0,0,1,14.464,12.6Z"/>
</svg>
