<svg xmlns="http://www.w3.org/2000/svg" viewBox="0 0 19.398 16.611"><defs><style>.a{fill:none;stroke:#461e7d;stroke-linejoin:round;stroke-miterlimit:10;stroke-width:1.4px;}</style></defs><path class="a" d="M8.617,8.768,9.2,6.394C9.376,5.69,9.817,5,10.577,5h6.86c.773,0,1.132.58,1.394,1.394l1.132,4.127H6.394A1.4,1.4,0,0,0,5,11.916v4.127a1.39,1.39,0,0,0,1.394,1.394H7.913a2.259,2.259,0,0,0-.11.69,2.084,2.084,0,1,0,4.169,0,2.329,2.329,0,0,0-.11-.69h4.321a2.259,2.259,0,0,0-.11.69,2.084,2.084,0,1,0,4.169,0,2.329,2.329,0,0,0-.11-.69h1.477A1.39,1.39,0,0,0,23,16.043V11.916a1.39,1.39,0,0,0-1.394-1.394" transform="translate(-4.301 -4.301)"/></svg>