<svg xmlns="http://www.w3.org/2000/svg" viewBox="0 0 42.008 41.982">
  <defs>
    <style>
      .cls-1 {
        fill: none;
        stroke: #fff;
        stroke-linejoin: round;
        stroke-miterlimit: 10;
        stroke-width: 2px;
      }
    </style>
  </defs>
  <g id="Group_6538" data-name="Group 6538" transform="translate(-3.6 -3.6)">
    <path id="Path_2641" data-name="Path 2641" class="cls-1" d="M17.968,23.346c.922,1.076,2.151,2.428,3.78,4.057a48.5,48.5,0,0,0,6.515,5.716l.707.492.768-.43,3.749-2.12a3.365,3.365,0,0,1,1.444-.4,1.189,1.189,0,0,1,.277.031,1.078,1.078,0,0,1,.43.184c1.045.645,7.345,4.825,8.39,5.562a1.294,1.294,0,0,1,.553.86,2.4,2.4,0,0,1-.338,1.444c-.031.061-.092.154-.123.215-1.414,1.936-4.118,5.009-5.593,5.532a1.233,1.233,0,0,1-.461.092h-.061c-5.317-.246-12.631-4.794-20.621-12.784S4.846,16.493,4.6,11.177a2.69,2.69,0,0,1,.061-.492c.553-1.506,3.657-4.241,5.593-5.655a2.335,2.335,0,0,1,1.321-.43,1.152,1.152,0,0,1,.338.031,1.341,1.341,0,0,1,.83.522c.768,1.137,4.794,7.222,5.532,8.359a1.606,1.606,0,0,1,.215.645,3.3,3.3,0,0,1-.4,1.506A20.387,20.387,0,0,1,16,19.413c-.768.707-1.813,1.6-1.813,1.6" transform="translate(0 0)"/>
  </g>
</svg>
