<svg xmlns="http://www.w3.org/2000/svg" viewBox="0 0 20.469 14.857">
  <defs>
    <style>
      .cls-1 {
        fill: none;
        stroke: #fff;
        stroke-linejoin: round;
        stroke-miterlimit: 10;
        stroke-width: 0.9px;
      }
    </style>
  </defs>
  <g id="Group_7988" data-name="Group 7988" transform="translate(-5.318 -4.55)">
    <path id="Path_3370" data-name="Path 3370" class="cls-1" d="M24.57,16.371V5H5V18.957H24.57V17.4" transform="translate(0.768 0)"/>
    <path id="Path_3371" data-name="Path 3371" class="cls-1" d="M46.89,32.578h0a2.363,2.363,0,0,1-.169-.865,1.746,1.746,0,1,1,3.452,0,2.135,2.135,0,0,1-.677,1.6,1.524,1.524,0,0,1-2.088,0A3.456,3.456,0,0,0,45,36.6h6.9A3.434,3.434,0,0,0,50.314,33.7" transform="translate(-36.238 -21.377)"/>
    <line id="Line_1865" data-name="Line 1865" class="cls-1" x2="4.919" transform="translate(18.214 11.643)"/>
    <line id="Line_1866" data-name="Line 1866" class="cls-1" x2="4.919" transform="translate(18.214 14.314)"/>
    <line id="Line_1867" data-name="Line 1867" class="cls-1" x2="4.919" transform="translate(18.214 8.69)"/>
  </g>
</svg>
