<svg xmlns="http://www.w3.org/2000/svg" viewBox="0 0 18 18"><defs><style>.a{fill:#461e7d;}</style></defs><g transform="translate(0)"><path class="a" d="M9.038,9.038a4.527,4.527,0,0,0,4.519-4.519A4.577,4.577,0,0,0,9.038,0,4.479,4.479,0,0,0,4.519,4.519,4.527,4.527,0,0,0,9.038,9.038Zm0-6.817A2.221,2.221,0,1,1,6.817,4.443,2.174,2.174,0,0,1,9.038,2.221Zm0,7.889C3.677,10.111,0,12.868,0,16.851V18H18V16.851C18,12.868,14.323,10.111,9.038,10.111ZM2.451,15.779c.689-2.068,3.217-3.37,6.587-3.37s5.9,1.379,6.587,3.37Z" transform="translate(0)"/></g></svg>