<svg xmlns="http://www.w3.org/2000/svg" viewBox="0 0 15 15">
  <defs>
    <style>
      .cls-1 {
        fill: #fff;
      }
    </style>
  </defs>
  <path id="Path_2290" data-name="Path 2290" class="cls-1" d="M14.464,15H.536A.531.531,0,0,1,0,14.464,7.475,7.475,0,0,1,5.229,7.318a.554.554,0,0,1,.514.107,2.592,2.592,0,0,0,1.757.7,2.664,2.664,0,0,0,1.757-.7A3.745,3.745,0,0,0,10.446,4.6,3.279,3.279,0,0,0,7.5,1.071,3.279,3.279,0,0,0,4.554,4.6a3.959,3.959,0,0,0,.3,1.543.155.155,0,0,1,.021.075l-.514.129-.482.236h0a.056.056,0,0,1-.021-.043A5.164,5.164,0,0,1,3.482,4.6,4.344,4.344,0,0,1,7.5,0a4.344,4.344,0,0,1,4.018,4.6A4.848,4.848,0,0,1,9.964,8.229a3.623,3.623,0,0,1-4.682.2,6.433,6.433,0,0,0-4.189,5.5H13.907a6.379,6.379,0,0,0-2.936-4.875l.579-.9A7.459,7.459,0,0,1,15,14.464.531.531,0,0,1,14.464,15Z"/>
</svg>
