<svg xmlns="http://www.w3.org/2000/svg" viewBox="0 0 36 36"><defs><style>.a{fill:none;}.b,.d{fill:#fff;}.c,.d{stroke:none;}</style></defs><g transform="translate(-1414 -4341)"><g class="a" transform="translate(1414 4341)"><path class="c" d="M18,0A18,18,0,1,1,0,18,18,18,0,0,1,18,0Z"/><path class="d" d="M 18 2 C 13.72624969482422 2 9.70829963684082 3.664291381835938 6.686290740966797 6.686290740966797 C 3.664291381835938 9.70829963684082 2 13.72624969482422 2 18 C 2 22.27375030517578 3.664291381835938 26.29170036315918 6.686290740966797 29.3137092590332 C 9.70829963684082 32.33570861816406 13.72624969482422 34 18 34 C 22.27375030517578 34 26.29170036315918 32.33570861816406 29.3137092590332 29.3137092590332 C 32.33570861816406 26.29170036315918 34 22.27375030517578 34 18 C 34 13.72624969482422 32.33570861816406 9.70829963684082 29.3137092590332 6.686290740966797 C 26.29170036315918 3.664291381835938 22.27375030517578 2 18 2 M 18 0 C 27.94112014770508 0 36 8.058879852294922 36 18 C 36 27.94112014770508 27.94112014770508 36 18 36 C 8.058879852294922 36 0 27.94112014770508 0 18 C 0 8.058879852294922 8.058879852294922 0 18 0 Z"/></g><path class="b" d="M15.387,1.721A1.968,1.968,0,0,0,14,.336,45.973,45.973,0,0,0,7.855,0,47.793,47.793,0,0,0,1.708.324a2.009,2.009,0,0,0-1.385,1.4A20.741,20.741,0,0,0,0,5.5,20.664,20.664,0,0,0,.324,9.279a1.968,1.968,0,0,0,1.385,1.385A46.071,46.071,0,0,0,7.855,11,47.794,47.794,0,0,0,14,10.676a1.968,1.968,0,0,0,1.385-1.385,20.741,20.741,0,0,0,.324-3.779A19.694,19.694,0,0,0,15.387,1.721Zm-9.1,6.134V3.145L10.379,5.5Z" transform="translate(1424 4354)"/></g></svg>